# xmcd
#
# Track frame offsets:
#	150
#	17580
#	34727
#	50897
#	69505
#	84672
#	102532
#	121762
#	139947
#	158700
#	178332
#	197162
#	215452
#	233726
#	249056
#	268665
#	286499
#	303671
#	320888
#
# Disc length: 4645 seconds
#
# Revision: 0
# Processed by: cddbd v1.5.1PL0 Copyright (c) Steve Scherf et al.
# Submitted via: audiograbber 1.81.03
#
DISCID=1d122313
DTITLE=Basic Element - All Hits
DYEAR=2005
DGENRE=Techno
TTITLE0=The Fiddle
TTITLE1=This Must To Be A Dream
TTITLE2=Spit It Out
TTITLE3=The Ride
TTITLE4=Respect
TTITLE5=Vision Of My Mind
TTITLE6=Queen Of Love
TTITLE7=Shame
TTITLE8=Talk To Me
TTITLE9=Night Eyes
TTITLE10=If I Had Wings
TTITLE11=Rule Your World
TTITLE12=Secret Love
TTITLE13=Love 4 Real
TTITLE14=Life In Vain
TTITLE15=Trippin' On Fantasy
TTITLE16=Strike It Up
TTITLE17=Rock The World
TTITLE18=The Fiddle (Fiddle Mix)
EXTD=
EXTT0=
EXTT1=
EXTT2=
EXTT3=
EXTT4=
EXTT5=
EXTT6=
EXTT7=
EXTT8=
EXTT9=
EXTT10=
EXTT11=
EXTT12=
EXTT13=
EXTT14=
EXTT15=
EXTT16=
EXTT17=
EXTT18=
PLAYORDER=
